<svg xmlns="http://www.w3.org/2000/svg" viewBox="0 0 513 513"><g id="fondo"><rect width="513" height="513" fill="#fff"/></g><g id="imagotipo"><path d="M319.79,437.72c5.23-6.35,10.53-12.65,15.68-19.07,16.26-20.29,31.16-41.47,42.28-65.09,6.18-13.11,11.23-26.65,13.33-41.05,3.36-22.95-1.18-44.08-15.72-62.52-10.4-13.17-23.86-21.18-40.89-22.16-11.91-.69-22.87,2.75-33.13,8.63-10.53,6-19.18,14.27-27.16,23.3-1.62,1.83-3.2,3.71-4.81,5.55-.32.37-.53,1-1.3.7a133.8,133.8,0,0,1,16.1-26.08c26-32.2,71.92-33.77,100.9-5.22,13.12,12.93,20.57,28.78,23.44,46.84C412,303.84,407.39,324.84,398,345c-10.49,22.62-25.53,42.06-42.5,60.11A354.26,354.26,0,0,1,321,437.27a11.9,11.9,0,0,1-1,.7Z" transform="translate(1.88 -0.16)" fill="#e5232e"/><path d="M192.87,437c-4.42-3.55-8.93-7-13.25-10.68-18-15.25-34.56-31.85-48.46-50.95-12.23-16.81-22.19-34.78-26.83-55.26-5-22.23-3.63-44,6.79-64.45,11.12-21.86,28.42-36.3,53.07-40.2,24.9-3.95,45.56,4.37,61.89,23.49,6.4,7.49,11.42,15.91,16.06,24.56.34.64.81,1.28.32,2.2A187.66,187.66,0,0,0,227,249.2c-9.13-8.51-19.3-15.4-31.35-19-20.79-6.16-39-.93-54.29,13.9-14.11,13.65-20.86,30.86-22.19,50.22-1.21,17.71,2.92,34.48,9.61,50.72,8.07,19.62,19.51,37.22,32.29,54a461.25,461.25,0,0,0,30.26,35.38l2,2.14Z" transform="translate(1.88 -0.16)" fill="#e5232e"/><path d="M420.85,74.55a85.27,85.27,0,0,1-1.74,15.6c-3.43,19.16-8.61,37.79-17.18,55.36A150.57,150.57,0,0,1,387,170.31a107.33,107.33,0,0,1-16.4,17.8,102.61,102.61,0,0,1-13.78,9.58,64.34,64.34,0,0,1-29.59,8.71,58,58,0,0,1-22.47-3.33,49.39,49.39,0,0,1-8.44-3.5c-.81-.46-1.45-.1-2.12.16a36.85,36.85,0,0,0-16.67,13.35c-7.92,10.93-13.06,23.19-16.91,36-.82,2.73-1.67,5.46-2.24,8.27-.08.44,0,1.14-.95,1.34.12-1.58.24-3.07.36-4.56,1-11.85,3.12-23.44,7.73-34.49,5.45-13.08,14.51-23,26.24-30.74,7.84-5.15,16-9.76,24.18-14.32,10.5-5.86,21-11.77,31.09-18.27a203.74,203.74,0,0,0,44.73-38.29c10-11.61,18.25-24.41,25.74-37.73C418.58,78.4,419.72,76.48,420.85,74.55Z" transform="translate(1.88 -0.16)" fill="#24bf94"/><path d="M90.44,73.13c3.35,5.73,6.63,11.51,10.06,17.19a192.84,192.84,0,0,0,20.71,28.32c3.21,3.64,6.35,7.37,9.88,10.68a230.27,230.27,0,0,0,19.24,16.43c9.45,7.08,19.47,13.24,29.53,19.38,12.49,7.62,25.45,14.42,37.86,22.18,18.25,11.42,28.63,28,33,48.76a177.41,177.41,0,0,1,3.14,24.63c-1.26-4.79-2.32-9.63-3.92-14.33-4.31-12.67-9.37-25-17.74-35.62a40,40,0,0,0-15-11.68,4.11,4.11,0,0,0-3.81,0c-14.95,6.81-30.37,8.33-46.16,3.44-8.19-2.54-15.44-6.84-22.3-12.07a109.32,109.32,0,0,1-24-25.87c-12.5-18.39-20.4-38.74-25.43-60.29Q92.15,90,90.28,75.46c-.1-.74-.1-1.49-.15-2.23Z" transform="translate(1.88 -0.16)" fill="#24bf94"/><path d="M94.58,69.24c6.37,3.19,12.67,6.39,19.15,9.2a305.19,305.19,0,0,0,35.39,12.39c5.41,1.6,11,2.67,16.29,4.52,6.44,2.25,13.24,3.37,19.53,6.07,3.26,1.4,6.38,3.11,9.66,4.47a58.73,58.73,0,0,1,17.59,11.6,46.05,46.05,0,0,1,15.13,33.88,22.19,22.19,0,0,1-.15,2.44c-.29,3.39-.3,3.43-3.47,2.67-17.76-4.23-35.16-9.54-51.63-17.52a186.46,186.46,0,0,1-64.15-50.44A127.22,127.22,0,0,1,94.58,69.24Z" transform="translate(1.88 -0.16)" fill="#24bf94"/><path d="M416.76,71.19c-6.75,11.37-15.19,21.43-24.3,30.93a171.51,171.51,0,0,1-36.66,29.37,210.45,210.45,0,0,1-40.67,18.24,268.44,268.44,0,0,1-28.69,7.69c-1.49.32-2,.14-2.08-1.52-.79-17.61,6.15-31.5,20.25-41.83,10.48-7.69,22.51-11.92,35-15.1,13.78-3.51,27.53-7.11,41-11.77a205.85,205.85,0,0,0,33.66-15.06c.78-.43,1.48-1.25,2.56-.93Z" transform="translate(1.88 -0.16)" fill="#24bf94"/><path d="M275.32,109.39a32.3,32.3,0,0,1-6.25,19.9c-7.27,9.87-19.21,9.76-26.39-.16-8.11-11.19-8.07-29,.09-40.15,7-9.58,18.5-9.88,25.91-.58C273.55,94.52,275.28,101.71,275.32,109.39Z" transform="translate(1.88 -0.16)" fill="#a35d39"/><path d="M416.79,71.21l0,0Z" transform="translate(1.88 -0.16)" fill="#21bf9a"/><path d="M320,438c-.16,0-.42.15-.46.1-.16-.21.06-.28.22-.35Z" transform="translate(1.88 -0.16)" fill="#e42631"/></g></svg>